<svg xmlns="http://www.w3.org/2000/svg" viewBox="0 0 176.9 169.73"><defs><style>.cls-1{fill:#6c5c4c;}.cls-2{fill:#372c2e;}.cls-3{fill:#de9e48;}.cls-4{fill:#f4d0a4;}</style></defs><g id="Layer_2" data-name="Layer 2"><g id="Layer_2-2" data-name="Layer 2"><rect class="cls-1" x="6.5" y="150.23" width="165" height="17"/><path class="cls-2" d="M171.5,169.73H6.5a2.49,2.49,0,0,1-2.5-2.5v-17a2.5,2.5,0,0,1,2.5-2.5h165a2.5,2.5,0,0,1,2.5,2.5v17A2.49,2.49,0,0,1,171.5,169.73ZM9,164.73H169v-12H9Z"/><path class="cls-2" d="M153.5,152.73H22.5a2.49,2.49,0,0,1-2.5-2.5v-91a2.53,2.53,0,0,1,1.11-2.08l66-44a2.52,2.52,0,0,1,2.83,0l65,46a2.49,2.49,0,0,1,1.06,2v89A2.49,2.49,0,0,1,153.5,152.73Zm-128.5-5H151V62.53L88.46,18.27,25,60.57Z"/><polygon class="cls-3" points="2.5 61.23 88 2.5 174.4 60.23 166.5 71.23 88.2 19.35 9.51 71.23 2.5 61.23"/><path class="cls-2" d="M9.51,73.73a2.51,2.51,0,0,1-2-1.06l-7-10a2.51,2.51,0,0,1,.63-3.5L86.58.44a2.5,2.5,0,0,1,2.81,0l86.4,57.74a2.44,2.44,0,0,1,1.07,1.63,2.48,2.48,0,0,1-.43,1.9l-7.9,11a2.5,2.5,0,0,1-3.41.63l-76.92-51-77.31,51A2.5,2.5,0,0,1,9.51,73.73ZM88.2,16.85a2.48,2.48,0,0,1,1.38.42l76.29,50.55,5-6.94L88,5.52,6,61.87l4.16,5.94L86.82,17.26A2.56,2.56,0,0,1,88.2,16.85Z"/><rect class="cls-4" x="43.5" y="80.23" width="41" height="70"/><path class="cls-2" d="M84.5,152.73h-41a2.49,2.49,0,0,1-2.5-2.5v-70a2.5,2.5,0,0,1,2.5-2.5h41a2.5,2.5,0,0,1,2.5,2.5v70A2.49,2.49,0,0,1,84.5,152.73Zm-38.5-5H82v-65H46Z"/><rect class="cls-4" x="105.5" y="79.23" width="27" height="49"/><path class="cls-2" d="M132.5,130.73h-27a2.49,2.49,0,0,1-2.5-2.5v-49a2.5,2.5,0,0,1,2.5-2.5h27a2.5,2.5,0,0,1,2.5,2.5v49A2.49,2.49,0,0,1,132.5,130.73Zm-24.5-5h22v-44H108Z"/><path class="cls-2" d="M141,130.73H97.6a2.5,2.5,0,1,1,0-5H141a2.5,2.5,0,1,1,0,5Z"/><path class="cls-2" d="M54,117.73a4,4,0,1,1,4-4A4,4,0,0,1,54,117.73Zm0-5a1,1,0,1,0,1,1A1,1,0,0,0,54,112.73Z"/><path class="cls-2" d="M131.5,106.73h-26a2.5,2.5,0,0,1,0-5h26a2.5,2.5,0,0,1,0,5Z"/></g></g></svg>