<svg xmlns="http://www.w3.org/2000/svg" viewBox="0 0 157.5 153.97"><defs><style>.cls-1{fill:#6c5c4c;}.cls-2{fill:#372c2e;}.cls-3{fill:#de9e48;}.cls-4{fill:#f4d0a4;}</style></defs><g id="Layer_2" data-name="Layer 2"><g id="Layer_2-2" data-name="Layer 2"><rect class="cls-1" x="7.5" y="135.94" width="76" height="15.53"/><path class="cls-2" d="M83.5,154H7.5a2.5,2.5,0,0,1-2.5-2.5V135.94a2.5,2.5,0,0,1,2.5-2.5h76a2.5,2.5,0,0,1,2.5,2.5v15.53A2.5,2.5,0,0,1,83.5,154ZM10,149H81V138.44H10Z"/><path class="cls-2" d="M44.16,138.44H25.09a2.5,2.5,0,0,1-2.5-2.5V2.5A2.51,2.51,0,0,1,26.83.7L46.6,19.76a2.49,2.49,0,0,1,.76,1.82L46.66,136A2.51,2.51,0,0,1,44.16,138.44Zm-16.57-5H41.67l.68-110.82L27.59,8.38Z"/><polygon class="cls-3" points="143.7 36.74 2.5 36.74 2.5 29.46 13.8 20.86 126.05 21.52 143.7 30.79 143.7 36.74"/><path class="cls-2" d="M143.7,39.24H2.5A2.5,2.5,0,0,1,0,36.74V29.46a2.49,2.49,0,0,1,1-2l11.29-8.6a2.34,2.34,0,0,1,1.53-.51L126.07,19a2.45,2.45,0,0,1,1.15.29l17.65,9.26a2.5,2.5,0,0,1,1.33,2.22v6A2.5,2.5,0,0,1,143.7,39.24ZM5,34.24H141.2V32.3L125.43,24l-110.8-.66L5,30.7Z"/><path class="cls-2" d="M24.88,138.44a2.5,2.5,0,0,1-1.65-4.37l16.68-14.76L23.69,102.19a2.5,2.5,0,0,1-.09-3.35L40.14,79.55,23.69,62.19a2.49,2.49,0,0,1-.08-3.35l19-22a2.5,2.5,0,0,1,3.78,3.26L28.87,60.39,45.31,77.75a2.5,2.5,0,0,1,.09,3.35L28.86,100.39l16.45,17.36a2.48,2.48,0,0,1,.69,1.83,2.52,2.52,0,0,1-.84,1.76L26.54,137.81A2.51,2.51,0,0,1,24.88,138.44Z"/><path class="cls-2" d="M116.17,66.42a2.49,2.49,0,0,1-2.5-2.5V37.1a2.5,2.5,0,0,1,5,0V63.92A2.49,2.49,0,0,1,116.17,66.42Z"/><rect class="cls-4" x="77.34" y="63.92" width="77.66" height="17.65"/><path class="cls-2" d="M155,84.07H77.34a2.49,2.49,0,0,1-2.5-2.5V63.92a2.5,2.5,0,0,1,2.5-2.5H155a2.5,2.5,0,0,1,2.5,2.5V81.57A2.49,2.49,0,0,1,155,84.07Zm-75.16-5H152.5V66.42H79.84Z"/></g></g></svg>