<svg xmlns="http://www.w3.org/2000/svg" viewBox="0 0 170 142.5"><defs><style>.cls-1{fill:#6c5c4c;}.cls-2{fill:#372c2e;}.cls-3{fill:#f4d0a4;}.cls-4{fill:#de9e48;}</style></defs><g id="Layer_2" data-name="Layer 2"><g id="Layer_2-2" data-name="Layer 2"><rect class="cls-1" x="2.5" y="123" width="165" height="17"/><path class="cls-2" d="M167.5,142.5H2.5A2.5,2.5,0,0,1,0,140V123a2.5,2.5,0,0,1,2.5-2.5h165A2.5,2.5,0,0,1,170,123v17A2.5,2.5,0,0,1,167.5,142.5ZM5,137.5H165v-12H5Z"/><rect class="cls-3" x="85.5" y="3" width="61.48" height="40"/><path class="cls-2" d="M147,45.5H85.5A2.5,2.5,0,0,1,83,43V3A2.5,2.5,0,0,1,85.5.5H147a2.5,2.5,0,0,1,2.5,2.5V43A2.5,2.5,0,0,1,147,45.5Zm-59-5h56.48V5.5H88Z"/><polygon class="cls-3" points="30.5 46 20 46 9.5 46 9.5 2.5 30.5 2.5 30.5 46"/><path class="cls-2" d="M30.5,48.5H9.5A2.5,2.5,0,0,1,7,46V2.5A2.5,2.5,0,0,1,9.5,0h21A2.5,2.5,0,0,1,33,2.5V46A2.5,2.5,0,0,1,30.5,48.5ZM12,43.5H28V5H12Z"/><rect class="cls-4" x="48.86" y="76.5" width="92.03" height="46.5"/><path class="cls-2" d="M140.89,125.5h-92a2.5,2.5,0,0,1-2.5-2.5V76.5a2.5,2.5,0,0,1,2.5-2.5h92a2.5,2.5,0,0,1,2.5,2.5V123A2.5,2.5,0,0,1,140.89,125.5Zm-89.53-5h87V79h-87Z"/><path class="cls-4" d="M140.89,123h12.59V98.35a9.26,9.26,0,0,0-9.25-9.26h-3.34Z"/><path class="cls-2" d="M153.48,125.5H140.89a2.5,2.5,0,0,1-2.5-2.5V89.09a2.5,2.5,0,0,1,2.5-2.5h3.34A11.77,11.77,0,0,1,156,98.35V123A2.5,2.5,0,0,1,153.48,125.5Zm-10.09-5H151V98.35a6.76,6.76,0,0,0-6.75-6.76h-.84Z"/><path class="cls-4" d="M48.48,123H35.89V98.35a9.26,9.26,0,0,1,9.25-9.26h3.34Z"/><path class="cls-2" d="M48.48,125.5H35.89a2.5,2.5,0,0,1-2.5-2.5V98.35A11.77,11.77,0,0,1,45.14,86.59h3.34a2.5,2.5,0,0,1,2.5,2.5V123A2.5,2.5,0,0,1,48.48,125.5Zm-10.09-5H46V91.59h-.84a6.76,6.76,0,0,0-6.75,6.76Z"/><path class="cls-2" d="M94.73,107.17h0a2.5,2.5,0,0,1-2.49-2.52l.14-28.16A2.51,2.51,0,0,1,94.87,74h0a2.49,2.49,0,0,1,2.49,2.51l-.14,28.17A2.5,2.5,0,0,1,94.73,107.17Z"/><path class="cls-2" d="M20,122.25a2.49,2.49,0,0,1-2.5-2.5V46a2.5,2.5,0,0,1,5,0v73.75A2.49,2.49,0,0,1,20,122.25Z"/><path class="cls-2" d="M140.56,107.17H48.9a2.5,2.5,0,1,1,0-5h91.66a2.5,2.5,0,0,1,0,5Z"/></g></g></svg>